<?xml version="1.0" standalone="no"?>
<!DOCTYPE svg PUBLIC "-//W3C//DTD SVG 20010904//EN"
 "http://www.w3.org/TR/2001/REC-SVG-20010904/DTD/svg10.dtd">
<svg version="1.0" xmlns="http://www.w3.org/2000/svg"
 width="1040.000000pt" height="1040.000000pt" viewBox="0 0 1040.000000 1040.000000"
 preserveAspectRatio="xMidYMid meet">
<metadata>
Created by potrace 1.14, written by Peter Selinger 2001-2017
</metadata>
<g transform="translate(0.000000,1040.000000) scale(0.100000,-0.100000)"
fill="#000000" stroke="none">
<path d="M4878 9155 c-1 -2 -52 -6 -113 -9 -60 -4 -132 -9 -160 -11 -27 -3
-75 -7 -105 -10 -30 -3 -66 -7 -80 -9 -14 -3 -52 -7 -85 -11 -33 -3 -71 -8
-85 -10 -24 -5 -75 -12 -135 -20 -16 -2 -41 -6 -55 -9 -99 -20 -126 -24 -132
-20 -5 3 -8 0 -8 -6 0 -6 -4 -9 -8 -6 -5 3 -32 -1 -60 -8 -28 -8 -53 -12 -55
-10 -2 3 -16 0 -31 -6 -15 -5 -41 -12 -59 -15 -18 -3 -50 -11 -72 -16 -22 -6
-47 -12 -55 -14 -8 -2 -42 -10 -75 -19 -33 -9 -69 -19 -80 -21 -11 -3 -58 -17
-104 -31 -47 -14 -89 -27 -95 -28 -6 -1 -15 -4 -21 -7 -5 -4 -23 -9 -40 -13
-54 -13 -367 -129 -460 -171 -16 -7 -63 -28 -104 -45 -41 -18 -119 -54 -172
-81 -54 -27 -101 -49 -104 -49 -4 0 -19 -9 -35 -20 -15 -11 -29 -17 -32 -14
-3 2 -11 -2 -18 -11 -7 -8 -18 -15 -25 -15 -7 0 -18 -7 -25 -15 -7 -8 -16 -12
-21 -9 -5 3 -9 1 -9 -3 0 -5 -12 -14 -27 -21 -70 -30 -256 -149 -435 -277 -77
-55 -150 -106 -161 -112 -12 -7 -18 -13 -12 -13 5 0 -14 -16 -43 -36 -29 -20
-52 -41 -52 -45 0 -5 -5 -9 -10 -9 -6 0 -21 -10 -34 -22 -13 -13 -52 -48 -86
-78 -116 -102 -386 -379 -417 -429 -1 -2 -46 -5 -100 -6 -54 -2 -111 -6 -128
-9 -47 -10 -133 -36 -163 -48 -15 -7 -31 -12 -37 -13 -15 -1 -130 -59 -133
-67 -2 -5 -8 -8 -14 -8 -18 0 -138 -90 -189 -143 -78 -80 -114 -150 -114 -222
0 -77 25 -114 103 -152 51 -25 68 -28 162 -29 58 -1 115 2 128 7 12 5 22 7 22
5 0 -2 -20 -46 -44 -97 -70 -148 -99 -221 -155 -389 -29 -84 -74 -248 -85
-305 -4 -16 -9 -40 -11 -52 -3 -13 -7 -31 -9 -40 -2 -10 -7 -40 -10 -66 -4
-27 -10 -59 -12 -70 -5 -22 -8 -49 -22 -192 -9 -92 -8 -439 1 -535 12 -125 29
-247 44 -315 2 -11 6 -31 9 -45 3 -14 16 -70 30 -125 14 -55 27 -107 29 -115
2 -8 4 -16 5 -17 2 -2 3 -6 4 -10 4 -19 69 -211 81 -238 7 -16 23 -55 35 -85
13 -30 34 -80 48 -110 14 -30 26 -57 27 -60 1 -5 9 -21 56 -107 16 -28 39 -71
52 -95 40 -74 71 -123 79 -126 4 -2 8 -8 8 -13 0 -13 127 -198 196 -286 29
-37 57 -73 61 -78 13 -16 136 -158 158 -181 11 -12 41 -43 66 -70 47 -50 182
-179 254 -244 22 -20 90 -76 150 -124 61 -49 120 -97 133 -107 12 -11 26 -19
31 -19 5 0 14 -6 20 -14 7 -8 78 -58 159 -111 81 -54 159 -106 174 -116 15
-11 30 -19 34 -19 3 0 18 -8 32 -18 62 -44 446 -242 467 -242 7 0 15 -4 17 -8
3 -8 342 -152 359 -152 5 0 17 -4 27 -9 25 -14 56 -24 65 -23 4 1 7 -2 7 -8 0
-6 3 -9 8 -8 9 3 117 -30 159 -48 17 -8 35 -14 41 -14 5 0 43 -11 83 -25 41
-13 85 -26 99 -29 24 -4 42 -9 78 -23 9 -3 26 -7 37 -9 11 -2 65 -15 120 -29
55 -14 111 -27 125 -30 52 -10 72 -14 88 -19 9 -3 31 -8 47 -10 17 -3 44 -9
60 -12 17 -4 39 -8 50 -9 11 -1 36 -5 55 -8 46 -9 87 -16 130 -23 19 -2 46 -7
60 -9 14 -3 52 -7 85 -10 33 -3 68 -8 78 -11 10 -3 37 -7 60 -9 23 -1 75 -6
115 -10 312 -31 830 -36 1137 -10 80 6 191 17 220 20 17 2 55 6 85 9 30 3 84
10 120 16 36 5 81 12 100 15 19 2 49 7 65 10 17 3 44 7 60 10 17 3 41 8 55 11
14 3 34 7 45 9 11 1 38 6 60 10 22 5 49 9 60 11 11 1 21 3 23 4 1 2 5 3 10 4
25 7 129 31 137 32 6 1 12 3 15 4 3 1 12 3 20 5 8 2 51 13 95 25 44 12 98 26
119 31 53 13 191 56 241 75 11 4 22 8 25 9 78 21 335 119 516 198 134 58 447
217 452 230 2 4 8 7 14 7 6 0 49 24 96 53 48 28 91 54 97 57 8 4 57 37 264
175 39 26 240 183 301 235 128 108 322 296 438 422 53 59 244 297 269 335 9
15 20 30 23 33 3 3 25 37 50 75 25 39 47 72 50 75 3 3 11 16 19 30 8 14 35 61
61 105 25 44 68 125 94 180 27 55 52 107 57 115 5 8 12 22 15 30 3 8 12 31 20
50 20 52 37 94 39 100 1 3 7 17 13 31 6 15 12 35 14 45 2 11 6 21 10 24 4 3 9
17 12 30 2 14 16 63 31 110 23 75 44 159 59 231 3 13 7 33 9 44 14 66 33 188
41 265 13 126 24 441 17 470 -1 3 -4 41 -6 85 -2 44 -6 96 -9 115 -2 19 -7 60
-11 90 -8 76 -29 195 -39 228 -3 9 -8 33 -11 52 -3 19 -8 43 -11 52 -3 9 -6
25 -8 35 -7 35 -27 102 -56 191 -30 90 -34 102 -64 177 -29 73 -39 100 -41
105 0 3 -20 44 -43 92 -23 48 -42 89 -42 90 0 2 53 3 118 3 100 0 124 3 166
23 57 26 102 72 111 113 39 179 -241 437 -570 524 -80 21 -115 26 -205 30 -74
4 -87 7 -103 27 -71 87 -250 272 -367 378 -45 41 -88 80 -94 85 -20 19 -223
180 -246 195 -12 8 -28 20 -34 26 -6 5 -40 30 -76 54 -36 24 -67 46 -70 49 -3
3 -17 12 -32 20 -16 8 -28 18 -28 23 0 4 -5 8 -11 8 -6 0 -30 14 -54 30 -24
17 -48 30 -53 30 -5 0 -15 7 -22 15 -7 9 -29 23 -49 32 -20 9 -38 20 -41 23
-10 14 -469 250 -485 250 -2 0 -32 13 -67 29 -62 28 -198 85 -208 87 -3 0 -14
4 -25 9 -73 30 -165 62 -165 58 0 -3 -6 -1 -12 4 -7 6 -67 27 -133 48 -66 20
-131 41 -145 45 -61 22 -373 102 -440 114 -8 2 -40 8 -70 14 -85 19 -124 26
-195 38 -16 3 -37 7 -45 9 -8 2 -35 6 -60 9 -25 3 -58 8 -75 11 -69 12 -92 15
-135 20 -74 8 -143 16 -180 20 -19 3 -66 7 -105 10 -38 3 -95 8 -125 11 -67 5
-787 14 -792 9z"/>
</g>
</svg>
