  <svg
    viewBox="0 0 260 198"
    fill="none"
    xmlns="http://www.w3.org/2000/svg"
  >
    <path
      fillRule="evenodd"
      clipRule="evenodd"
      d="M130.022 197.083C200.973 197.083 258.49 153.02 258.49 98.6654C258.49 85.6332 255.184 73.1926 249.178 61.8092C254.239 62.8563 258.488 61.9904 259.679 59.3134C261.28 55.7117 256.739 50.1953 249.536 46.9923C245.169 45.0509 240.828 44.405 237.728 44.9993C214.808 18.0579 175.13 0.248138 130.022 0.248138C84.91 0.248138 45.229 18.0611 22.3098 45.0065C19.2076 44.3998 14.8482 45.0431 10.4645 46.9923C3.26106 50.1953 -1.28019 55.7117 0.321328 59.3134C1.51552 61.9991 5.78807 62.8619 10.8707 61.799C4.86199 73.1852 1.55355 85.6293 1.55355 98.6654C1.55355 153.02 59.0708 197.083 130.022 197.083ZM216.294 162.293C238.112 145.578 250.977 123.016 250.977 98.6654C250.977 74.3149 238.112 51.7525 216.294 35.0378C194.468 18.3174 163.991 7.76091 130.022 7.76091C96.0524 7.76091 65.5757 18.3174 43.7499 35.0378C21.9314 51.7525 9.06631 74.3149 9.06631 98.6654C9.06631 123.016 21.9314 145.578 43.7499 162.293C65.5757 179.013 96.0524 189.57 130.022 189.57C163.991 189.57 194.468 179.013 216.294 162.293Z"
      fill="#BF7000"
    />
    <path
      d="M258.572 97.9354C258.572 152.762 201.8 197.056 130.003 197.056C58.2062 197.056 1.54419 153.453 1.54419 98.6262C1.54419 43.7994 58.0986 0 129.896 0C201.693 0 258.572 43.1085 258.572 97.9354Z"
      fill="#FF9500"
    />
    <path
      d="M96.8148 74.055C96.8148 83.1833 92.7785 90.5833 87.7995 90.5833C82.8204 90.5833 78.7842 83.1833 78.7842 74.055C78.7842 64.9268 82.8204 57.5271 87.7995 57.5271C92.7785 57.5271 96.8148 64.9268 96.8148 74.055Z"
      fill="#402500"
    />
    <path
      d="M172.694 90.5833C177.673 90.5833 181.709 83.1833 181.709 74.055C181.709 64.9268 177.673 57.5271 172.694 57.5271C167.715 57.5271 163.678 64.9268 163.678 74.055C163.678 83.1833 167.715 90.5833 172.694 90.5833Z"
      fill="#402500"
    />
    <path
      d="M146.963 112.558C146.963 118.276 141.135 121.604 136.051 124.508C134.933 125.147 133.852 125.764 132.876 126.382V132.687C134.829 137.458 138.736 140.558 143.944 142.307C149.379 144.131 156.087 144.417 162.88 143.503C169.655 142.591 176.303 140.514 181.541 137.818C186.919 135.049 190.256 131.917 191.284 129.213C191.836 127.758 193.463 127.027 194.917 127.579C196.372 128.132 197.103 129.759 196.551 131.213C194.761 135.928 189.834 139.886 184.12 142.828C178.264 145.843 170.99 148.097 163.631 149.087C156.291 150.075 148.655 149.832 142.151 147.648C137.312 146.023 133.027 143.288 130.059 139.163C127.091 143.288 122.806 146.023 117.967 147.648C111.463 149.832 103.826 150.075 96.4861 149.087C89.1277 148.097 81.8537 145.843 75.9979 142.828C70.2837 139.886 65.3568 135.928 63.5665 131.213C63.0141 129.759 63.7455 128.132 65.2001 127.579C66.6547 127.027 68.2817 127.758 68.8341 129.213C69.8611 131.917 73.1982 135.049 78.577 137.818C83.8143 140.514 90.4625 142.591 97.2374 143.503C104.031 144.417 110.739 144.131 116.173 142.307C121.382 140.558 125.288 137.458 127.241 132.687V126.443C126.24 125.834 125.114 125.218 123.943 124.577C118.645 121.679 112.404 118.266 112.404 112.558C112.404 104.156 121.657 90.3954 130.059 90.3954C138.461 90.3954 146.963 104.156 146.963 112.558Z"
      fill="#402500"
    />
    <path
      d="M93.2103 66.0359C93.2103 67.7993 91.7808 69.2288 90.0174 69.2288C88.254 69.2288 86.8245 67.7993 86.8245 66.0359C86.8245 64.2725 88.254 62.843 90.0174 62.843C91.7808 62.843 93.2103 64.2725 93.2103 66.0359Z"
      fill="white"
    />
    <path
      d="M178.105 66.0359C178.105 67.7993 176.676 69.2288 174.912 69.2288C173.149 69.2288 171.719 67.7993 171.719 66.0359C171.719 64.2725 173.149 62.843 174.912 62.843C176.676 62.843 178.105 64.2725 178.105 66.0359Z"
      fill="white"
    />
  </svg>